<svg width="52" height="52" viewBox="0 0 52 52" fill="none" xmlns="http://www.w3.org/2000/svg">
<g filter="url(#filter0_d_569_462)">
<g filter="url(#filter1_d_569_462)">
<path d="M26 2.5C26.8284 2.5 27.5 3.17157 27.5 4V6C27.5 6.82843 26.8284 7.5 26 7.5C25.1716 7.5 24.5 6.82843 24.5 6V4C24.5 3.17157 25.1716 2.5 26 2.5Z" fill="#262626" shape-rendering="crispEdges"/>
<path fill-rule="evenodd" clip-rule="evenodd" d="M14.5 24C14.5 17.6487 19.6487 12.5 26 12.5C32.3513 12.5 37.5 17.6487 37.5 24C37.5 30.3513 32.3513 35.5 26 35.5C19.6487 35.5 14.5 30.3513 14.5 24ZM26 15.5C21.3056 15.5 17.5 19.3056 17.5 24C17.5 28.6944 21.3056 32.5 26 32.5C30.6944 32.5 34.5 28.6944 34.5 24C34.5 19.3056 30.6944 15.5 26 15.5Z" fill="#262626" shape-rendering="crispEdges"/>
<path d="M12.9186 8.79725C12.3328 8.21146 11.383 8.21146 10.7972 8.79725C10.2114 9.38304 10.2114 10.3328 10.7972 10.9186L12.2114 12.3328C12.7972 12.9186 13.747 12.9186 14.3328 12.3328C14.9186 11.747 14.9186 10.7972 14.3328 10.2115L12.9186 8.79725Z" fill="#262626" shape-rendering="crispEdges"/>
<path d="M47.5 24C47.5 24.8284 46.8284 25.5 46 25.5H44C43.1716 25.5 42.5 24.8284 42.5 24C42.5 23.1716 43.1716 22.5 44 22.5H46C46.8284 22.5 47.5 23.1716 47.5 24Z" fill="#262626" shape-rendering="crispEdges"/>
<path d="M41.2028 10.9186C41.7885 10.3328 41.7885 9.38302 41.2028 8.79723C40.617 8.21145 39.6672 8.21145 39.0814 8.79723L37.6672 10.2114C37.0814 10.7972 37.0814 11.747 37.6672 12.3328C38.253 12.9186 39.2028 12.9186 39.7885 12.3328L41.2028 10.9186Z" fill="#262626" shape-rendering="crispEdges"/>
<path d="M26 40.5C26.8284 40.5 27.5 41.1716 27.5 42V44C27.5 44.8284 26.8284 45.5 26 45.5C25.1716 45.5 24.5 44.8284 24.5 44V42C24.5 41.1716 25.1716 40.5 26 40.5Z" fill="#262626" shape-rendering="crispEdges"/>
<path d="M39.7887 35.6672C39.2029 35.0815 38.2531 35.0815 37.6674 35.6672C37.0816 36.253 37.0816 37.2028 37.6674 37.7886L39.0816 39.2028C39.6674 39.7886 40.6171 39.7886 41.2029 39.2028C41.7887 38.617 41.7887 37.6672 41.2029 37.0815L39.7887 35.6672Z" fill="#262626" shape-rendering="crispEdges"/>
<path d="M9.5 24C9.5 24.8284 8.82843 25.5 8 25.5H6C5.17157 25.5 4.5 24.8284 4.5 24C4.5 23.1716 5.17157 22.5 6 22.5H8C8.82843 22.5 9.5 23.1716 9.5 24Z" fill="#262626" shape-rendering="crispEdges"/>
<path d="M14.3326 37.7885C14.9184 37.2028 14.9184 36.253 14.3326 35.6672C13.7468 35.0814 12.7971 35.0814 12.2113 35.6672L10.7971 37.0814C10.2113 37.6672 10.2113 38.617 10.7971 39.2028C11.3829 39.7885 12.3326 39.7885 12.9184 39.2028L14.3326 37.7885Z" fill="#262626" shape-rendering="crispEdges"/>
<path d="M26 2.5C26.8284 2.5 27.5 3.17157 27.5 4V6C27.5 6.82843 26.8284 7.5 26 7.5C25.1716 7.5 24.5 6.82843 24.5 6V4C24.5 3.17157 25.1716 2.5 26 2.5Z" stroke="#EADD50" stroke-opacity="0.5" stroke-width="0.25" stroke-linecap="round" shape-rendering="crispEdges"/>
<path fill-rule="evenodd" clip-rule="evenodd" d="M14.5 24C14.5 17.6487 19.6487 12.5 26 12.5C32.3513 12.5 37.5 17.6487 37.5 24C37.5 30.3513 32.3513 35.5 26 35.5C19.6487 35.5 14.5 30.3513 14.5 24ZM26 15.5C21.3056 15.5 17.5 19.3056 17.5 24C17.5 28.6944 21.3056 32.5 26 32.5C30.6944 32.5 34.5 28.6944 34.5 24C34.5 19.3056 30.6944 15.5 26 15.5Z" stroke="#EADD50" stroke-opacity="0.5" stroke-width="0.25" stroke-linecap="round" shape-rendering="crispEdges"/>
<path d="M12.9186 8.79725C12.3328 8.21146 11.383 8.21146 10.7972 8.79725C10.2114 9.38304 10.2114 10.3328 10.7972 10.9186L12.2114 12.3328C12.7972 12.9186 13.747 12.9186 14.3328 12.3328C14.9186 11.747 14.9186 10.7972 14.3328 10.2115L12.9186 8.79725Z" stroke="#EADD50" stroke-opacity="0.5" stroke-width="0.25" stroke-linecap="round" shape-rendering="crispEdges"/>
<path d="M47.5 24C47.5 24.8284 46.8284 25.5 46 25.5H44C43.1716 25.5 42.5 24.8284 42.5 24C42.5 23.1716 43.1716 22.5 44 22.5H46C46.8284 22.5 47.5 23.1716 47.5 24Z" stroke="#EADD50" stroke-opacity="0.5" stroke-width="0.25" stroke-linecap="round" shape-rendering="crispEdges"/>
<path d="M41.2028 10.9186C41.7885 10.3328 41.7885 9.38302 41.2028 8.79723C40.617 8.21145 39.6672 8.21145 39.0814 8.79723L37.6672 10.2114C37.0814 10.7972 37.0814 11.747 37.6672 12.3328C38.253 12.9186 39.2028 12.9186 39.7885 12.3328L41.2028 10.9186Z" stroke="#EADD50" stroke-opacity="0.5" stroke-width="0.25" stroke-linecap="round" shape-rendering="crispEdges"/>
<path d="M26 40.5C26.8284 40.5 27.5 41.1716 27.5 42V44C27.5 44.8284 26.8284 45.5 26 45.5C25.1716 45.5 24.5 44.8284 24.5 44V42C24.5 41.1716 25.1716 40.5 26 40.5Z" stroke="#EADD50" stroke-opacity="0.5" stroke-width="0.25" stroke-linecap="round" shape-rendering="crispEdges"/>
<path d="M39.7887 35.6672C39.2029 35.0815 38.2531 35.0815 37.6674 35.6672C37.0816 36.253 37.0816 37.2028 37.6674 37.7886L39.0816 39.2028C39.6674 39.7886 40.6171 39.7886 41.2029 39.2028C41.7887 38.617 41.7887 37.6672 41.2029 37.0815L39.7887 35.6672Z" stroke="#EADD50" stroke-opacity="0.5" stroke-width="0.25" stroke-linecap="round" shape-rendering="crispEdges"/>
<path d="M9.5 24C9.5 24.8284 8.82843 25.5 8 25.5H6C5.17157 25.5 4.5 24.8284 4.5 24C4.5 23.1716 5.17157 22.5 6 22.5H8C8.82843 22.5 9.5 23.1716 9.5 24Z" stroke="#EADD50" stroke-opacity="0.5" stroke-width="0.25" stroke-linecap="round" shape-rendering="crispEdges"/>
<path d="M14.3326 37.7885C14.9184 37.2028 14.9184 36.253 14.3326 35.6672C13.7468 35.0814 12.7971 35.0814 12.2113 35.6672L10.7971 37.0814C10.2113 37.6672 10.2113 38.617 10.7971 39.2028C11.3829 39.7885 12.3326 39.7885 12.9184 39.2028L14.3326 37.7885Z" stroke="#EADD50" stroke-opacity="0.5" stroke-width="0.25" stroke-linecap="round" shape-rendering="crispEdges"/>
</g>
</g>
<defs>
<filter id="filter0_d_569_462" x="0" y="0" width="52" height="52" filterUnits="userSpaceOnUse" color-interpolation-filters="sRGB">
<feFlood flood-opacity="0" result="BackgroundImageFix"/>
<feColorMatrix in="SourceAlpha" type="matrix" values="0 0 0 0 0 0 0 0 0 0 0 0 0 0 0 0 0 0 127 0" result="hardAlpha"/>
<feOffset dy="2"/>
<feGaussianBlur stdDeviation="1"/>
<feComposite in2="hardAlpha" operator="out"/>
<feColorMatrix type="matrix" values="0 0 0 0 0.917647 0 0 0 0 0.866667 0 0 0 0 0.313726 0 0 0 0.25 0"/>
<feBlend mode="normal" in2="BackgroundImageFix" result="effect1_dropShadow_569_462"/>
<feBlend mode="normal" in="SourceGraphic" in2="effect1_dropShadow_569_462" result="shape"/>
</filter>
<filter id="filter1_d_569_462" x="0.375" y="0.375" width="51.25" height="51.25" filterUnits="userSpaceOnUse" color-interpolation-filters="sRGB">
<feFlood flood-opacity="0" result="BackgroundImageFix"/>
<feColorMatrix in="SourceAlpha" type="matrix" values="0 0 0 0 0 0 0 0 0 0 0 0 0 0 0 0 0 0 127 0" result="hardAlpha"/>
<feOffset dy="2"/>
<feGaussianBlur stdDeviation="2"/>
<feComposite in2="hardAlpha" operator="out"/>
<feColorMatrix type="matrix" values="0 0 0 0 0.917647 0 0 0 0 0.866667 0 0 0 0 0.313726 0 0 0 1 0"/>
<feBlend mode="normal" in2="BackgroundImageFix" result="effect1_dropShadow_569_462"/>
<feBlend mode="normal" in="SourceGraphic" in2="effect1_dropShadow_569_462" result="shape"/>
</filter>
</defs>
</svg>
