<svg width="48" height="48" viewBox="0 0 48 48" fill="none" xmlns="http://www.w3.org/2000/svg">
<path d="M9.5 3.75C7.15279 3.75 5.25 5.65279 5.25 8C5.25 10.3472 7.15279 12.25 9.5 12.25C11.8472 12.25 13.75 10.3472 13.75 8C13.75 5.65279 11.8472 3.75 9.5 3.75Z" fill="#262626"/>
<path d="M5.5 15.75C5.36193 15.75 5.25 15.8619 5.25 16V42C5.25 42.1381 5.36193 42.25 5.5 42.25H13.5C13.6381 42.25 13.75 42.1381 13.75 42V16C13.75 15.8619 13.6381 15.75 13.5 15.75H5.5Z" fill="#262626"/>
<path d="M18.5 15.75C18.3619 15.75 18.25 15.8619 18.25 16V42C18.25 42.1381 18.3619 42.25 18.5 42.25H26.5C26.6381 42.25 26.75 42.1381 26.75 42V28C26.75 27.0054 27.1451 26.0516 27.8484 25.3484C28.5516 24.6451 29.5054 24.25 30.5 24.25C31.4946 24.25 32.4484 24.6451 33.1516 25.3484C33.8549 26.0516 34.25 27.0054 34.25 28V42C34.25 42.1381 34.3619 42.25 34.5 42.25H42.5C42.6381 42.25 42.75 42.1381 42.75 42V24.7605C42.75 19.907 38.5288 16.11 33.6997 16.549C32.2104 16.6844 30.7379 17.0546 29.3629 17.6439L26.75 18.7637V16C26.75 15.8619 26.6381 15.75 26.5 15.75H18.5Z" fill="#262626"/>
</svg>
