<svg width="225" height="111" viewBox="0 0 225 111" fill="none" xmlns="http://www.w3.org/2000/svg">
<path d="M50 9V44.5" stroke="white" stroke-width="2"/>
<g filter="url(#filter0_d_33_489)">
<path d="M93.167 26.3242V76.6748L50 101.842L6.83301 76.6748V26.3242L50 1.15723L93.167 26.3242Z" stroke="white" stroke-width="2" shape-rendering="crispEdges"/>
</g>
<path d="M9 67L37 83M8.5 65.5L35.5 50" stroke="white"/>
<path d="M91 67L63 83M91.5 65.5L64.5 50" stroke="white"/>
<g filter="url(#filter1_d_33_489)">
<path d="M50 19L62.9904 26.5V41.5L50 49L37.0096 41.5V26.5L50 19Z" fill="#CDBD9B"/>
</g>
<g filter="url(#filter2_d_33_489)">
<path d="M35 45L47.9904 52.5V67.5L35 75L22.0096 67.5V52.5L35 45Z" fill="#CDBD9B"/>
</g>
<g filter="url(#filter3_d_33_489)">
<path d="M21 20L33.9904 27.5V42.5L21 50L8.00962 42.5V27.5L21 20Z" fill="#CDBD9B"/>
</g>
<g filter="url(#filter4_d_33_489)">
<path d="M47.1328 21.8125V73H36.6211V21.8125H47.1328ZM62.8828 21.8125V30.0742H21.1172V21.8125H62.8828Z" fill="white"/>
</g>
<path d="M74.7344 60.3735C76.3815 60.9285 77.6079 61.8416 78.4136 63.1128C79.2192 64.366 79.6221 67.3201 79.6221 71.9751C79.6221 75.4305 79.2282 78.116 78.4404 80.0317C77.6527 81.9295 76.292 83.3797 74.3584 84.3823C72.4248 85.367 69.9451 85.8594 66.9194 85.8594C63.4819 85.8594 60.7785 85.2865 58.8091 84.1406C56.8576 82.9769 55.5685 81.5625 54.9419 79.8975C54.3332 78.2145 54.0288 75.3052 54.0288 71.1694V67.7319H64.8784V74.7949C64.8784 76.6748 64.9858 77.8743 65.2007 78.3936C65.4334 78.8949 65.9347 79.1455 66.7046 79.1455C67.5461 79.1455 68.1011 78.8232 68.3696 78.1787C68.6382 77.5342 68.7725 75.8512 68.7725 73.1299V70.1221C68.7725 68.457 68.5845 67.2396 68.2085 66.4697C67.8325 65.6999 67.2775 65.1986 66.5435 64.9658C65.8094 64.7152 64.3861 64.5719 62.2734 64.5361V58.2251C64.8516 58.2251 66.445 58.1266 67.0537 57.9297C67.6624 57.7327 68.1011 57.3031 68.3696 56.6406C68.6382 55.9782 68.7725 54.9398 68.7725 53.5254V51.1084C68.7725 49.5866 68.6113 48.584 68.2891 48.1006C67.9847 47.6172 67.5013 47.3755 66.8389 47.3755C66.0869 47.3755 65.5677 47.6351 65.2812 48.1543C65.0127 48.6556 64.8784 49.7388 64.8784 51.4038V54.9756H54.0288V51.2695C54.0288 47.1159 54.9777 44.314 56.8755 42.8638C58.7733 41.3957 61.79 40.6616 65.9258 40.6616C71.0999 40.6616 74.609 41.6732 76.4531 43.6963C78.2972 45.7194 79.2192 48.5303 79.2192 52.1289C79.2192 54.5638 78.888 56.3273 78.2256 57.4194C77.5632 58.4937 76.3994 59.4784 74.7344 60.3735Z" fill="white"/>
<g filter="url(#filter5_d_33_489)">
<path d="M50 70L62.9904 77.5V92.5L50 100L37.0096 92.5V77.5L50 70Z" fill="#CDBD9B"/>
</g>
<path d="M15 49.5V32L50 11.5" stroke="white"/>
<path d="M15 56V73.5L50 94" stroke="white"/>
<path d="M50 84L50 100.5" stroke="white" stroke-width="2"/>
<path d="M50 11.5L85.5 32V49" stroke="white"/>
<path d="M50 94L85.5 73.5V56.5" stroke="white"/>
<path d="M65 32L76 37.76V50" stroke="white"/>
<path d="M32 32L21 37.76V50" stroke="white"/>
<path d="M37 77.5L50 84.5L63 77.5" stroke="white"/>
<path d="M105.975 73V60.85H108.165V73H105.975ZM110.046 73V60.85H111.591L114.546 67.78V60.85H116.376V73H114.906L111.936 65.74V73H110.046ZM121.49 73.165C120.6 73.165 119.9 72.99 119.39 72.64C118.89 72.29 118.54 71.815 118.34 71.215C118.14 70.605 118.04 69.905 118.04 69.115V64.78C118.04 63.95 118.14 63.23 118.34 62.62C118.54 62.01 118.89 61.54 119.39 61.21C119.9 60.88 120.6 60.715 121.49 60.715C122.33 60.715 122.985 60.86 123.455 61.15C123.935 61.43 124.275 61.835 124.475 62.365C124.675 62.895 124.775 63.51 124.775 64.21V65.23H122.645V64.18C122.645 63.84 122.625 63.53 122.585 63.25C122.555 62.97 122.46 62.75 122.3 62.59C122.15 62.42 121.885 62.335 121.505 62.335C121.125 62.335 120.845 62.425 120.665 62.605C120.495 62.775 120.385 63.01 120.335 63.31C120.285 63.6 120.26 63.93 120.26 64.3V69.58C120.26 70.02 120.295 70.385 120.365 70.675C120.435 70.955 120.56 71.17 120.74 71.32C120.93 71.46 121.185 71.53 121.505 71.53C121.875 71.53 122.135 71.445 122.285 71.275C122.445 71.095 122.545 70.86 122.585 70.57C122.625 70.28 122.645 69.955 122.645 69.595V68.5H124.775V69.475C124.775 70.195 124.68 70.835 124.49 71.395C124.3 71.945 123.965 72.38 123.485 72.7C123.015 73.01 122.35 73.165 121.49 73.165ZM126.022 73V70.945H128.002V73H126.022Z" fill="#FEFEFE"/>
<path d="M105.22 55V38.8H112.02V40.88H108.18V45.54H111.2V47.6H108.18V52.96H112.06V55H105.22ZM113.775 55V38.8H115.835L119.775 48.04V38.8H122.215V55H120.255L116.295 45.32V55H113.775ZM128.733 55.22C127.666 55.22 126.82 54.9933 126.193 54.54C125.566 54.0867 125.113 53.4467 124.833 52.62C124.566 51.78 124.433 50.7933 124.433 49.66V44.22C124.433 43.06 124.566 42.06 124.833 41.22C125.1 40.38 125.566 39.74 126.233 39.3C126.913 38.8467 127.846 38.62 129.033 38.62C130.14 38.62 131.02 38.8067 131.673 39.18C132.326 39.5533 132.793 40.0933 133.073 40.8C133.366 41.4933 133.513 42.34 133.513 43.34V44.18H130.693V43.26C130.693 42.74 130.653 42.2933 130.573 41.92C130.506 41.5467 130.36 41.2667 130.133 41.08C129.92 40.88 129.566 40.78 129.073 40.78C128.553 40.78 128.173 40.9067 127.933 41.16C127.706 41.4133 127.56 41.7467 127.493 42.16C127.44 42.5733 127.413 43.0267 127.413 43.52V50.3C127.413 50.86 127.46 51.3467 127.553 51.76C127.646 52.1733 127.82 52.4933 128.073 52.72C128.326 52.9333 128.686 53.04 129.153 53.04C129.633 53.04 130 52.92 130.253 52.68C130.506 52.44 130.68 52.1067 130.773 51.68C130.88 51.2533 130.933 50.7467 130.933 50.16V48.64H129.193V46.78H133.593V55H131.693L131.473 53.4C131.26 53.9333 130.933 54.3733 130.493 54.72C130.066 55.0533 129.48 55.22 128.733 55.22ZM135.925 55V38.8H138.845V55H135.925ZM141.353 55V38.8H143.413L147.353 48.04V38.8H149.793V55H147.833L143.873 45.32V55H141.353ZM152.251 55V38.8H159.051V40.88H155.211V45.54H158.231V47.6H155.211V52.96H159.091V55H152.251ZM160.806 55V38.8H167.606V40.88H163.766V45.54H166.786V47.6H163.766V52.96H167.646V55H160.806ZM169.361 55V38.8H173.241C174.334 38.8 175.254 38.9333 176.001 39.2C176.761 39.4533 177.334 39.8933 177.721 40.52C178.121 41.1467 178.321 42 178.321 43.08C178.321 43.7333 178.261 44.32 178.141 44.84C178.021 45.36 177.814 45.8067 177.521 46.18C177.241 46.54 176.847 46.82 176.341 47.02L178.601 55H175.641L173.681 47.58H172.321V55H169.361ZM172.321 45.72H173.241C173.814 45.72 174.267 45.64 174.601 45.48C174.947 45.3067 175.194 45.04 175.341 44.68C175.487 44.3067 175.561 43.8333 175.561 43.26C175.561 42.4467 175.407 41.84 175.101 41.44C174.807 41.0267 174.241 40.82 173.401 40.82H172.321V45.72ZM180.652 55V38.8H183.572V55H180.652ZM186.079 55V38.8H188.139L192.079 48.04V38.8H194.519V55H192.559L188.599 45.32V55H186.079ZM201.038 55.22C199.971 55.22 199.124 54.9933 198.498 54.54C197.871 54.0867 197.418 53.4467 197.138 52.62C196.871 51.78 196.738 50.7933 196.738 49.66V44.22C196.738 43.06 196.871 42.06 197.138 41.22C197.404 40.38 197.871 39.74 198.538 39.3C199.218 38.8467 200.151 38.62 201.338 38.62C202.444 38.62 203.324 38.8067 203.978 39.18C204.631 39.5533 205.098 40.0933 205.378 40.8C205.671 41.4933 205.818 42.34 205.818 43.34V44.18H202.998V43.26C202.998 42.74 202.958 42.2933 202.878 41.92C202.811 41.5467 202.664 41.2667 202.438 41.08C202.224 40.88 201.871 40.78 201.378 40.78C200.858 40.78 200.478 40.9067 200.238 41.16C200.011 41.4133 199.864 41.7467 199.798 42.16C199.744 42.5733 199.718 43.0267 199.718 43.52V50.3C199.718 50.86 199.764 51.3467 199.858 51.76C199.951 52.1733 200.124 52.4933 200.378 52.72C200.631 52.9333 200.991 53.04 201.458 53.04C201.938 53.04 202.304 52.92 202.558 52.68C202.811 52.44 202.984 52.1067 203.078 51.68C203.184 51.2533 203.238 50.7467 203.238 50.16V48.64H201.498V46.78H205.898V55H203.998L203.778 53.4C203.564 53.9333 203.238 54.3733 202.798 54.72C202.371 55.0533 201.784 55.22 201.038 55.22ZM208.19 57.72L207.91 56.72C208.27 56.6133 208.576 56.42 208.83 56.14C209.083 55.8733 209.21 55.4933 209.21 55H207.77V52.3H210.43V54.76C210.43 55.6133 210.243 56.28 209.87 56.76C209.496 57.2533 208.936 57.5733 208.19 57.72Z" fill="#FEFEFE"/>
<defs>
<filter id="filter0_d_33_489" x="1.8327" y="0" width="96.3346" height="111" filterUnits="userSpaceOnUse" color-interpolation-filters="sRGB">
<feFlood flood-opacity="0" result="BackgroundImageFix"/>
<feColorMatrix in="SourceAlpha" type="matrix" values="0 0 0 0 0 0 0 0 0 0 0 0 0 0 0 0 0 0 127 0" result="hardAlpha"/>
<feOffset dy="4"/>
<feGaussianBlur stdDeviation="2"/>
<feComposite in2="hardAlpha" operator="out"/>
<feColorMatrix type="matrix" values="0 0 0 0 0 0 0 0 0 0 0 0 0 0 0 0 0 0 0.25 0"/>
<feBlend mode="normal" in2="BackgroundImageFix" result="effect1_dropShadow_33_489"/>
<feBlend mode="normal" in="SourceGraphic" in2="effect1_dropShadow_33_489" result="shape"/>
</filter>
<filter id="filter1_d_33_489" x="33.0096" y="19" width="33.9808" height="38" filterUnits="userSpaceOnUse" color-interpolation-filters="sRGB">
<feFlood flood-opacity="0" result="BackgroundImageFix"/>
<feColorMatrix in="SourceAlpha" type="matrix" values="0 0 0 0 0 0 0 0 0 0 0 0 0 0 0 0 0 0 127 0" result="hardAlpha"/>
<feOffset dy="4"/>
<feGaussianBlur stdDeviation="2"/>
<feComposite in2="hardAlpha" operator="out"/>
<feColorMatrix type="matrix" values="0 0 0 0 0 0 0 0 0 0 0 0 0 0 0 0 0 0 0.25 0"/>
<feBlend mode="normal" in2="BackgroundImageFix" result="effect1_dropShadow_33_489"/>
<feBlend mode="normal" in="SourceGraphic" in2="effect1_dropShadow_33_489" result="shape"/>
</filter>
<filter id="filter2_d_33_489" x="18.0096" y="45" width="33.9808" height="38" filterUnits="userSpaceOnUse" color-interpolation-filters="sRGB">
<feFlood flood-opacity="0" result="BackgroundImageFix"/>
<feColorMatrix in="SourceAlpha" type="matrix" values="0 0 0 0 0 0 0 0 0 0 0 0 0 0 0 0 0 0 127 0" result="hardAlpha"/>
<feOffset dy="4"/>
<feGaussianBlur stdDeviation="2"/>
<feComposite in2="hardAlpha" operator="out"/>
<feColorMatrix type="matrix" values="0 0 0 0 0 0 0 0 0 0 0 0 0 0 0 0 0 0 0.25 0"/>
<feBlend mode="normal" in2="BackgroundImageFix" result="effect1_dropShadow_33_489"/>
<feBlend mode="normal" in="SourceGraphic" in2="effect1_dropShadow_33_489" result="shape"/>
</filter>
<filter id="filter3_d_33_489" x="4.00961" y="20" width="33.9808" height="38" filterUnits="userSpaceOnUse" color-interpolation-filters="sRGB">
<feFlood flood-opacity="0" result="BackgroundImageFix"/>
<feColorMatrix in="SourceAlpha" type="matrix" values="0 0 0 0 0 0 0 0 0 0 0 0 0 0 0 0 0 0 127 0" result="hardAlpha"/>
<feOffset dy="4"/>
<feGaussianBlur stdDeviation="2"/>
<feComposite in2="hardAlpha" operator="out"/>
<feColorMatrix type="matrix" values="0 0 0 0 0 0 0 0 0 0 0 0 0 0 0 0 0 0 0.25 0"/>
<feBlend mode="normal" in2="BackgroundImageFix" result="effect1_dropShadow_33_489"/>
<feBlend mode="normal" in="SourceGraphic" in2="effect1_dropShadow_33_489" result="shape"/>
</filter>
<filter id="filter4_d_33_489" x="17.1172" y="19.8125" width="49.7656" height="59.1875" filterUnits="userSpaceOnUse" color-interpolation-filters="sRGB">
<feFlood flood-opacity="0" result="BackgroundImageFix"/>
<feColorMatrix in="SourceAlpha" type="matrix" values="0 0 0 0 0 0 0 0 0 0 0 0 0 0 0 0 0 0 127 0" result="hardAlpha"/>
<feOffset dy="2"/>
<feGaussianBlur stdDeviation="2"/>
<feComposite in2="hardAlpha" operator="out"/>
<feColorMatrix type="matrix" values="0 0 0 0 0 0 0 0 0 0 0 0 0 0 0 0 0 0 0.25 0"/>
<feBlend mode="normal" in2="BackgroundImageFix" result="effect1_dropShadow_33_489"/>
<feBlend mode="normal" in="SourceGraphic" in2="effect1_dropShadow_33_489" result="shape"/>
</filter>
<filter id="filter5_d_33_489" x="33.0096" y="70" width="33.9808" height="38" filterUnits="userSpaceOnUse" color-interpolation-filters="sRGB">
<feFlood flood-opacity="0" result="BackgroundImageFix"/>
<feColorMatrix in="SourceAlpha" type="matrix" values="0 0 0 0 0 0 0 0 0 0 0 0 0 0 0 0 0 0 127 0" result="hardAlpha"/>
<feOffset dy="4"/>
<feGaussianBlur stdDeviation="2"/>
<feComposite in2="hardAlpha" operator="out"/>
<feColorMatrix type="matrix" values="0 0 0 0 0 0 0 0 0 0 0 0 0 0 0 0 0 0 0.25 0"/>
<feBlend mode="normal" in2="BackgroundImageFix" result="effect1_dropShadow_33_489"/>
<feBlend mode="normal" in="SourceGraphic" in2="effect1_dropShadow_33_489" result="shape"/>
</filter>
</defs>
</svg>
